<svg width="22" height="22" viewBox="0 0 22 22" fill="none" xmlns="http://www.w3.org/2000/svg">
<circle cx="7.28273" cy="8.16243" r="1.12245" fill="#D1D1D1"/>
<circle cx="14.0174" cy="8.16243" r="1.12245" fill="#D1D1D1"/>
<path fill-rule="evenodd" clip-rule="evenodd" d="M7.48271 11.4962C7.84369 11.3357 8.25338 11.5308 8.39777 11.9319C8.73474 12.8679 9.59939 13.3957 10.56 13.3957C11.5206 13.3957 12.3853 12.8679 12.7222 11.9319C12.8666 11.5308 13.2763 11.3357 13.6373 11.4962C13.9983 11.6566 14.1739 12.1118 14.0295 12.5129C13.4278 14.1841 11.9459 14.96 10.56 14.96C9.17409 14.96 7.69219 14.1841 7.09055 12.5129C6.94615 12.1118 7.12173 11.6566 7.48271 11.4962Z" fill="#D1D1D1"/>
<path fill-rule="evenodd" clip-rule="evenodd" d="M21.1032 11.1606C21.079 11.5919 20.6835 11.8939 20.2551 11.8381V11.8381C19.8267 11.7822 19.5282 11.3894 19.5469 10.9578C19.5527 10.826 19.5556 10.6934 19.5556 10.56C19.5556 10.4266 19.5527 10.294 19.5469 10.1622C19.5282 9.73057 19.8267 9.33782 20.2551 9.28194V9.28194C20.6835 9.22607 21.079 9.52811 21.1032 9.95945C21.1144 10.1582 21.12 10.3584 21.12 10.56C21.12 10.7616 21.1144 10.9618 21.1032 11.1606ZM19.9924 5.80702C20.1872 6.19267 19.9952 6.65191 19.5961 6.81739V6.81739C19.1971 6.98288 18.7424 6.79157 18.5427 6.40849C18.4207 6.17436 18.2886 5.94621 18.147 5.72459C17.9144 5.36054 17.9755 4.8711 18.3181 4.60787V4.60787C18.6606 4.34463 19.1544 4.40746 19.3916 4.7685C19.6108 5.102 19.8115 5.44865 19.9924 5.80702ZM16.3515 1.72839C16.7125 1.96563 16.7754 2.45939 16.5121 2.80194V2.80194C16.2489 3.14449 15.7595 3.20559 15.3954 2.973C15.1738 2.83141 14.9456 2.69932 14.7115 2.57727C14.3284 2.37756 14.1371 1.92292 14.3026 1.52386V1.52386C14.4681 1.1248 14.9273 0.932846 15.313 1.12755C15.6713 1.30849 16.018 1.50925 16.3515 1.72839ZM11.1606 0.0167905C11.5919 0.040973 11.8939 0.436527 11.8381 0.864908V0.864908C11.7822 1.29329 11.3894 1.59178 10.9578 1.57306C10.826 1.56734 10.6934 1.56444 10.56 1.56444C10.4266 1.56444 10.294 1.56734 10.1622 1.57306C9.73058 1.59178 9.33782 1.29329 9.28194 0.864908V0.864908C9.22607 0.436527 9.52811 0.0409731 9.95945 0.0167905C10.1582 0.00564669 10.3584 0 10.56 0C10.7616 0 10.9618 0.00564668 11.1606 0.0167905ZM5.80702 1.12755C6.19267 0.932846 6.65191 1.1248 6.81739 1.52386V1.52386C6.98288 1.92292 6.79157 2.37756 6.40849 2.57727C6.17436 2.69932 5.94621 2.83141 5.72459 2.973C5.36054 3.20559 4.8711 3.14449 4.60787 2.80194V2.80194C4.34463 2.45939 4.40746 1.96563 4.7685 1.72839C5.102 1.50925 5.44865 1.30849 5.80702 1.12755ZM1.72839 4.7685C1.96563 4.40746 2.45939 4.34463 2.80194 4.60787V4.60787C3.14449 4.8711 3.20559 5.36054 2.973 5.72459C2.83141 5.94621 2.69932 6.17436 2.57727 6.40849C2.37756 6.79157 1.92292 6.98288 1.52386 6.81739V6.81739C1.1248 6.65191 0.932847 6.19267 1.12755 5.80702C1.30849 5.44865 1.50925 5.102 1.72839 4.7685ZM0.864907 9.28194C0.436527 9.22607 0.0409731 9.52811 0.0167905 9.95945C0.00564669 10.1582 0 10.3584 0 10.56C0 10.7616 0.0056467 10.9618 0.0167905 11.1606C0.0409731 11.5919 0.436527 11.8939 0.864908 11.8381V11.8381C1.29329 11.7822 1.59178 11.3894 1.57306 10.9578C1.56734 10.826 1.56444 10.6934 1.56444 10.56C1.56444 10.4266 1.56734 10.294 1.57306 10.1622C1.59178 9.73058 1.29329 9.33782 0.864907 9.28194V9.28194ZM1.12755 15.313C0.932846 14.9273 1.1248 14.4681 1.52386 14.3026V14.3026C1.92292 14.1371 2.37756 14.3284 2.57727 14.7115C2.69932 14.9456 2.83141 15.1738 2.973 15.3954C3.20559 15.7595 3.14449 16.2489 2.80194 16.5121V16.5121C2.45939 16.7754 1.96563 16.7125 1.72839 16.3515C1.50925 16.018 1.30849 15.6713 1.12755 15.313ZM4.7685 19.3916C4.40746 19.1544 4.34463 18.6606 4.60787 18.3181V18.3181C4.8711 17.9755 5.36054 17.9144 5.72459 18.147C5.94621 18.2886 6.17436 18.4207 6.40849 18.5427C6.79157 18.7424 6.98288 19.1971 6.81739 19.5961V19.5961C6.65191 19.9952 6.19267 20.1872 5.80702 19.9924C5.44865 19.8115 5.102 19.6108 4.7685 19.3916ZM9.95945 21.1032C9.52811 21.079 9.22607 20.6835 9.28194 20.2551V20.2551C9.33782 19.8267 9.73058 19.5282 10.1622 19.5469C10.294 19.5527 10.4266 19.5556 10.56 19.5556C10.6934 19.5556 10.826 19.5527 10.9578 19.5469C11.3894 19.5282 11.7822 19.8267 11.8381 20.2551V20.2551C11.8939 20.6835 11.5919 21.079 11.1606 21.1032C10.9618 21.1144 10.7616 21.12 10.56 21.12C10.3584 21.12 10.1582 21.1144 9.95945 21.1032Z" fill="#D1D1D1"/>
<path fill-rule="evenodd" clip-rule="evenodd" d="M18.2947 13.8947C18.2947 13.511 17.9837 13.2 17.6 13.2C17.2163 13.2 16.9053 13.511 16.9053 13.8947V16.9053L13.8947 16.9053C13.511 16.9053 13.2 17.2163 13.2 17.6C13.2 17.9837 13.511 18.2948 13.8947 18.2948H16.9053V21.3053C16.9053 21.689 17.2163 22 17.6 22C17.9837 22 18.2947 21.689 18.2947 21.3053V18.2948H21.3053C21.689 18.2948 22 17.9837 22 17.6C22 17.2163 21.689 16.9053 21.3053 16.9053L18.2947 16.9053V13.8947Z" fill="#D1D1D1"/>
</svg>
