<svg width="14" height="16" viewBox="0 0 14 16" fill="none" xmlns="http://www.w3.org/2000/svg">
<path d="M12.817 9.51275L12.5125 9.26885C12.4306 9.2036 12.3646 9.12088 12.3191 9.0268C12.2737 8.93272 12.2501 8.82967 12.25 8.72528V5.90989C12.2496 4.69999 11.8276 3.52771 11.0559 2.593C10.2842 1.6583 9.21073 1.01906 8.0185 0.784343C7.96037 0.559879 7.82894 0.361017 7.64489 0.219034C7.46083 0.0770504 7.23459 0 7.00175 0C6.76891 0 6.54267 0.0770504 6.35861 0.219034C6.17456 0.361017 6.04313 0.559879 5.985 0.784343C4.79213 1.01835 3.71782 1.65728 2.94546 2.59205C2.1731 3.52683 1.75057 4.6995 1.75 5.90989V8.72528C1.74993 8.82967 1.72631 8.93272 1.68088 9.0268C1.63544 9.12088 1.56936 9.2036 1.4875 9.26885L1.183 9.51275C0.815248 9.80545 0.518081 10.1765 0.313355 10.5986C0.108629 11.0207 0.00155175 11.4831 0 11.9518V12.5302C0 12.8999 0.1475 13.2544 0.41005 13.5158C0.672601 13.7772 1.0287 13.924 1.4 13.924H4.291C4.44878 14.519 4.79991 15.0453 5.28962 15.4208C5.77933 15.7964 6.3801 16 6.99825 16C7.6164 16 8.21717 15.7964 8.70688 15.4208C9.19659 15.0453 9.54772 14.519 9.7055 13.924H12.6C12.9713 13.924 13.3274 13.7772 13.5899 13.5158C13.8525 13.2544 14 12.8999 14 12.5302V11.9588C13.9995 11.4889 13.8929 11.0251 13.6882 10.6017C13.4834 10.1783 13.1857 9.80618 12.817 9.51275ZM7 14.6209C6.75568 14.6194 6.516 14.5543 6.30478 14.4321C6.09356 14.3098 5.91816 14.1346 5.796 13.924H8.2075C8.08504 14.1352 7.90909 14.3106 7.6972 14.4329C7.48532 14.5552 7.24491 14.62 7 14.6209ZM12.6 12.5302H1.4V11.9588C1.40037 11.6977 1.4597 11.44 1.5736 11.2048C1.68749 10.9695 1.85304 10.7628 2.058 10.5999L2.3625 10.356C2.60807 10.1602 2.80633 9.91209 2.94263 9.62984C3.07894 9.34759 3.1498 9.03846 3.15 8.72528V5.90989C3.15 4.89336 3.55562 3.91846 4.27764 3.19967C4.99965 2.48087 5.97892 2.07705 7 2.07705C8.02108 2.07705 9.00035 2.48087 9.72236 3.19967C10.4444 3.91846 10.85 4.89336 10.85 5.90989V8.72528C10.8497 9.03904 10.9203 9.34886 11.0566 9.63175C11.1929 9.91464 11.3915 10.1634 11.6375 10.3595L11.942 10.6034C12.1465 10.7659 12.3118 10.9721 12.4256 11.2067C12.5395 11.4413 12.5991 11.6983 12.6 11.9588V12.5302Z" fill="#777777"/>
</svg>
