<svg width="10" height="10" viewBox="0 0 10 10" fill="none" xmlns="http://www.w3.org/2000/svg">
<path d="M4.53125 2.34375C4.53125 2.08398 4.74023 1.875 5 1.875C5.25977 1.875 5.46875 2.08398 5.46875 2.34375V4.75L7.13477 5.85938C7.34961 6.00391 7.4082 6.29492 7.24805 6.50977C7.12109 6.72461 6.83008 6.7832 6.61523 6.62305L4.74023 5.37305C4.60938 5.30273 4.53125 5.15625 4.53125 4.98242V2.34375ZM5 0C7.76172 0 10 2.23828 10 5C10 7.76172 7.76172 10 5 10C2.23828 10 0 7.76172 0 5C0 2.23828 2.23828 0 5 0ZM0.9375 5C0.9375 7.24414 2.75586 9.0625 5 9.0625C7.24414 9.0625 9.0625 7.24414 9.0625 5C9.0625 2.75586 7.24414 0.9375 5 0.9375C2.75586 0.9375 0.9375 2.75586 0.9375 5Z" fill="#31322A"/>
</svg>
