<svg width="13" height="13" viewBox="0 0 13 13" fill="none" xmlns="http://www.w3.org/2000/svg">
<path fill-rule="evenodd" clip-rule="evenodd" d="M5.8 5.2C5.46863 5.2 5.2 5.46863 5.2 5.8V11.2C5.2 11.5314 5.46863 11.8 5.8 11.8H11.2C11.5314 11.8 11.8 11.5314 11.8 11.2V5.8C11.8 5.46863 11.5314 5.2 11.2 5.2H5.8ZM4 5.8C4 4.80589 4.80589 4 5.8 4H11.2C12.1941 4 13 4.80589 13 5.8V11.2C13 12.1941 12.1941 13 11.2 13H5.8C4.80589 13 4 12.1941 4 11.2V5.8Z" fill="#9D9D9D"/>
<path fill-rule="evenodd" clip-rule="evenodd" d="M1.8 1.2C1.64087 1.2 1.48826 1.26321 1.37574 1.37574C1.26321 1.48826 1.2 1.64087 1.2 1.8V7.2C1.2 7.35913 1.26321 7.51174 1.37574 7.62426C1.48826 7.73679 1.64087 7.8 1.8 7.8H2.4C2.73137 7.8 3 8.06863 3 8.4C3 8.73137 2.73137 9 2.4 9H1.8C1.32261 9 0.864773 8.81036 0.527208 8.47279C0.189642 8.13523 0 7.67739 0 7.2V1.8C0 1.32261 0.189642 0.864773 0.527208 0.527208C0.864773 0.189642 1.32261 0 1.8 0H7.2C7.67739 0 8.13523 0.189642 8.47279 0.527208C8.81036 0.864773 9 1.32261 9 1.8V2.4C9 2.73137 8.73137 3 8.4 3C8.06863 3 7.8 2.73137 7.8 2.4V1.8C7.8 1.64087 7.73679 1.48826 7.62426 1.37574C7.51174 1.26321 7.35913 1.2 7.2 1.2H1.8Z" fill="#9D9D9D"/>
</svg>
