<svg width="19" height="4" viewBox="0 0 19 4" fill="none" xmlns="http://www.w3.org/2000/svg">
<path d="M7.46429 2C7.46429 2.39556 7.58368 2.78224 7.80737 3.11114C8.03105 3.44004 8.34899 3.69638 8.72097 3.84776C9.09295 3.99913 9.50226 4.03874 9.89715 3.96157C10.292 3.8844 10.6548 3.69392 10.9395 3.41421C11.2242 3.13451 11.4181 2.77814 11.4966 2.39018C11.5751 2.00222 11.5348 1.60009 11.3808 1.23463C11.2267 0.869181 10.9658 0.556823 10.631 0.33706C10.2962 0.117298 9.90263 0 9.5 0C8.9601 0 8.4423 0.210713 8.06053 0.585786C7.67876 0.960859 7.46429 1.46957 7.46429 2ZM0 2C0 2.39556 0.119392 2.78224 0.34308 3.11114C0.566767 3.44004 0.884702 3.69638 1.25668 3.84776C1.62866 3.99913 2.03797 4.03874 2.43286 3.96157C2.82775 3.8844 3.19048 3.69392 3.47518 3.41421C3.75988 3.13451 3.95376 2.77814 4.03231 2.39018C4.11086 2.00222 4.07055 1.60009 3.91647 1.23463C3.76239 0.869181 3.50147 0.556823 3.1667 0.33706C2.83193 0.117298 2.43834 0 2.03571 0C1.49581 0 0.978017 0.210713 0.596247 0.585786C0.214476 0.960859 0 1.46957 0 2ZM14.9286 2C14.9286 2.39556 15.048 2.78224 15.2717 3.11114C15.4953 3.44004 15.8133 3.69638 16.1853 3.84776C16.5572 3.99913 16.9665 4.03874 17.3614 3.96157C17.7563 3.8844 18.1191 3.69392 18.4038 3.41421C18.6885 3.13451 18.8823 2.77814 18.9609 2.39018C19.0394 2.00222 18.9991 1.60009 18.845 1.23463C18.691 0.869181 18.43 0.556823 18.0953 0.33706C17.7605 0.117298 17.3669 0 16.9643 0C16.4244 0 15.9066 0.210713 15.5248 0.585786C15.143 0.960859 14.9286 1.46957 14.9286 2Z" fill="#E5E5E5"/>
</svg>
