<svg width="11" height="11" viewBox="0 0 11 11" fill="none" xmlns="http://www.w3.org/2000/svg">
<path d="M10.2143 4.71429H6.28571V0.785714C6.28571 0.352 5.93371 0 5.5 0C5.06629 0 4.71429 0.352 4.71429 0.785714V4.71429H0.785714C0.352 4.71429 0 5.06629 0 5.5C0 5.93371 0.352 6.28571 0.785714 6.28571H4.71429V10.2143C4.71429 10.648 5.06629 11 5.5 11C5.93371 11 6.28571 10.648 6.28571 10.2143V6.28571H10.2143C10.648 6.28571 11 5.93371 11 5.5C11 5.06629 10.648 4.71429 10.2143 4.71429Z" fill="#E5E5E5"/>
</svg>
