<svg width="27" height="21" viewBox="0 0 27 21" fill="none" xmlns="http://www.w3.org/2000/svg">
<path d="M23.9893 0H3.12359C1.68908 0 0.515381 0.908668 0.515381 2.01926V6.05779C0.515381 7.16838 1.68908 8.07705 3.12359 8.07705H23.9893C25.4238 8.07705 26.5975 7.16838 26.5975 6.05779V2.01926C26.5975 0.908668 25.4238 0 23.9893 0Z" fill="#9D9D9D"/>
<path d="M23.9893 12.1155H3.12359C1.68908 12.1155 0.515381 13.0241 0.515381 14.1347V18.1733C0.515381 19.2839 1.68908 20.1925 3.12359 20.1925H23.9893C25.4238 20.1925 26.5975 19.2839 26.5975 18.1733V14.1347C26.5975 13.0241 25.4238 12.1155 23.9893 12.1155Z" fill="#9D9D9D"/>
</svg>
