<svg width="24" height="24" viewBox="0 0 24 24" fill="none" xmlns="http://www.w3.org/2000/svg">
<circle cx="12" cy="12" r="12" fill="white" fill-opacity="0.3"/>
<circle cx="12" cy="12" r="11.5" stroke="#9D9D9D" stroke-opacity="0.6"/>
<path d="M10.3777 17.2347L15.8779 11.7346L13.2654 9.12215L7.76527 14.6223C7.68955 14.6981 7.63576 14.793 7.60961 14.8969L7 18L10.1025 17.3904C10.2067 17.3643 10.302 17.3105 10.3777 17.2347ZM17.6534 9.95903C17.8753 9.73705 18 9.43602 18 9.12215C18 8.80827 17.8753 8.50724 17.6534 8.28526L16.7147 7.34658C16.4928 7.12466 16.1917 7 15.8779 7C15.564 7 15.2629 7.12466 15.041 7.34658L14.1023 8.28526L16.7147 10.8977L17.6534 9.95903Z" fill="#9D9D9D"/>
</svg>
