<svg width="10" height="10" viewBox="0 0 10 10" fill="none" xmlns="http://www.w3.org/2000/svg">
<path d="M5 0C5.22101 0 5.43298 0.087784 5.58926 0.244064C5.74554 0.400345 5.83333 0.61232 5.83333 0.833333V4.16667H9.16667C9.38768 4.16667 9.59964 4.25445 9.75592 4.41073C9.9122 4.56701 10 4.77899 10 5C10 5.22101 9.9122 5.43296 9.75592 5.58924C9.59964 5.74552 9.38768 5.83333 9.16667 5.83333H5.83333V9.16667C5.83333 9.38768 5.74554 9.59963 5.58926 9.75591C5.43298 9.91219 5.22101 10 5 10C4.77899 10 4.56703 9.91219 4.41074 9.75591C4.25446 9.59963 4.16667 9.38768 4.16667 9.16667V5.83333H0.833334C0.61232 5.83333 0.400357 5.74552 0.244078 5.58924C0.0877972 5.43296 0 5.22101 0 5C0 4.77899 0.0877972 4.56701 0.244078 4.41073C0.400357 4.25445 0.61232 4.16667 0.833334 4.16667H4.16667V0.833333C4.16667 0.61232 4.25446 0.400345 4.41074 0.244064C4.56703 0.087784 4.77899 0 5 0Z" fill="#9D9D9D"/>
</svg>
