<svg width="27" height="27" viewBox="0 0 27 27" fill="none" xmlns="http://www.w3.org/2000/svg">
<path d="M7.91208 8.78491C7.1035 8.78491 6.448 9.4404 6.448 10.249C6.448 11.0576 7.1035 11.7131 7.91208 11.7131H19.6247C20.4333 11.7131 21.0888 11.0576 21.0888 10.249C21.0888 9.4404 20.4333 8.78491 19.6247 8.78491H7.91208Z" fill="#31322A"/>
<path fill-rule="evenodd" clip-rule="evenodd" d="M4.98404 0C2.55828 0 0.591797 1.96648 0.591797 4.39224V21.9612C0.591797 24.387 2.55828 26.3534 4.98404 26.3534H22.553C24.9788 26.3534 26.9452 24.387 26.9452 21.9612V4.39224C26.9452 1.96648 24.9788 0 22.553 0H4.98404ZM3.51996 21.9612V5.85632H24.0171V21.9612C24.0171 22.7698 23.3616 23.4253 22.553 23.4253H4.98404C4.17546 23.4253 3.51996 22.7698 3.51996 21.9612Z" fill="#31322A"/>
</svg>
