<svg width="27" height="28" viewBox="0 0 27 28" fill="none" xmlns="http://www.w3.org/2000/svg">
<path d="M25.1237 15.383C25.0243 15.3226 24.9443 15.2349 24.8934 15.1304C24.8424 15.0258 24.8227 14.9088 24.8364 14.7933C24.8596 14.5003 24.8723 14.2014 24.8723 13.9003C24.8723 13.5991 24.8596 13.3002 24.8364 13.0048C24.8228 12.8897 24.8427 12.7731 24.8936 12.6689C24.9446 12.5648 25.0245 12.4775 25.1237 12.4176C25.7913 12.0312 26.2784 11.3958 26.4782 10.6507C26.6779 9.90568 26.5741 9.11182 26.1894 8.44325L24.4634 5.45585C24.0746 4.78912 23.4373 4.30376 22.6913 4.10617C21.9452 3.90857 21.1512 4.01486 20.4833 4.40175C20.3886 4.45768 20.2798 4.48514 20.1699 4.48082C20.06 4.47651 19.9536 4.44061 19.8636 4.37742C19.3522 4.0259 18.8134 3.71601 18.2523 3.45074C18.1507 3.4024 18.0654 3.32549 18.0067 3.22942C17.9481 3.13335 17.9187 3.02228 17.9222 2.90979C17.9213 2.13835 17.6144 1.39876 17.0689 0.853273C16.5234 0.307781 15.7839 0.000919661 15.0124 0L11.5652 0C10.7921 0.0015347 10.0513 0.310024 9.50563 0.857637C8.95998 1.40525 8.65414 2.14715 8.65537 2.92021C8.6556 3.02965 8.62482 3.13691 8.5666 3.22958C8.50838 3.32224 8.42509 3.39651 8.3264 3.44379C7.76486 3.70879 7.22563 4.0187 6.71397 4.37047C6.62253 4.43373 6.51482 4.46934 6.4037 4.47303C6.29257 4.47673 6.18273 4.44837 6.0873 4.39132C5.419 4.0059 4.62504 3.90152 3.87984 4.10113C3.13464 4.30073 2.49915 4.78799 2.11298 5.45585L0.38819 8.44325C0.00348569 9.11182 -0.100366 9.90568 0.0994109 10.6507C0.299188 11.3958 0.786285 12.0312 1.45388 12.4176C1.5533 12.4779 1.63326 12.5656 1.6842 12.6701C1.73514 12.7747 1.75491 12.8917 1.74115 13.0072C1.71798 13.3002 1.70524 13.5991 1.70524 13.9003C1.70524 14.2014 1.71798 14.5003 1.74115 14.7957C1.75474 14.9108 1.73487 15.0274 1.68393 15.1316C1.63298 15.2357 1.55311 15.323 1.45388 15.383C0.786285 15.7694 0.299188 16.4048 0.0994109 17.1498C-0.100366 17.8948 0.00348569 18.6887 0.38819 19.3573L2.11414 22.3447C2.50176 23.0126 3.13863 23.4994 3.88489 23.6981C4.63115 23.8969 5.42578 23.7913 6.09425 23.4046C6.18886 23.3483 6.29773 23.3207 6.4077 23.325C6.51768 23.3294 6.62405 23.3654 6.71397 23.4289C7.22539 23.7804 7.76421 24.0903 8.32524 24.3556C8.42596 24.4035 8.51069 24.4795 8.56925 24.5744C8.62781 24.6694 8.65772 24.7792 8.65537 24.8907C8.65629 25.6622 8.96315 26.4018 9.50864 26.9472C10.0541 27.4927 10.7937 27.7996 11.5652 27.8005H15.0124C15.7855 27.799 16.5263 27.4905 17.0719 26.9429C17.6176 26.3953 17.9234 25.6534 17.9222 24.8803C17.922 24.7709 17.9528 24.6636 18.011 24.5709C18.0692 24.4783 18.1525 24.404 18.2512 24.3567C18.8127 24.0917 19.3519 23.7818 19.8636 23.43C19.955 23.3668 20.0628 23.3312 20.1739 23.3275C20.285 23.3238 20.3948 23.3521 20.4903 23.4092C21.1588 23.7937 21.9524 23.8975 22.6974 23.698C23.4423 23.4985 24.0778 23.0118 24.4646 22.3447L26.1894 19.3584C26.5745 18.6897 26.6785 17.8956 26.4787 17.1503C26.2789 16.405 25.7916 15.7694 25.1237 15.383ZM22.5556 13.9003C22.5556 14.1377 22.5452 14.3729 22.5267 14.6045C22.4806 15.1564 22.5911 15.71 22.8456 16.2018C23.1001 16.6936 23.4882 17.1035 23.9653 17.3846C24.0328 17.4236 24.092 17.4755 24.1394 17.5373C24.1869 17.5992 24.2216 17.6698 24.2417 17.7451C24.2619 17.8204 24.2669 17.899 24.2567 17.9762C24.2464 18.0535 24.221 18.128 24.182 18.1954L22.4595 21.1817C22.3791 21.3182 22.2478 21.4172 22.0945 21.4569C21.9411 21.4967 21.7783 21.4739 21.6417 21.3937C21.1665 21.1219 20.6244 20.9894 20.0775 21.0113C19.5305 21.0332 19.0008 21.2087 18.5489 21.5176C18.1396 21.7991 17.7085 22.0474 17.2596 22.2601C16.7637 22.4978 16.3453 22.8709 16.0525 23.3365C15.7598 23.802 15.6048 24.3408 15.6055 24.8907C15.6055 25.048 15.543 25.1989 15.4318 25.3101C15.3206 25.4213 15.1697 25.4838 15.0124 25.4838H11.5652C11.4865 25.4835 11.4086 25.4676 11.3361 25.4371C11.2636 25.4065 11.1979 25.3619 11.1428 25.3057C11.0876 25.2496 11.0441 25.1831 11.0148 25.1101C10.9855 25.0371 10.971 24.959 10.9721 24.8803C10.9707 24.3325 10.8146 23.7962 10.5217 23.3333C10.2289 22.8703 9.81119 22.4995 9.31679 22.2636C8.86841 22.0506 8.43769 21.8024 8.0287 21.5211C7.57533 21.2119 7.04388 21.037 6.49551 21.0165C5.94714 20.996 5.40412 21.1308 4.92894 21.4052C4.79264 21.4838 4.63074 21.5052 4.47874 21.4646C4.32673 21.4239 4.19704 21.3247 4.11809 21.1886L2.40025 18.2001C2.32166 18.0638 2.30033 17.9019 2.34094 17.7499C2.38154 17.5979 2.48077 17.4682 2.61686 17.3892C3.09398 17.1082 3.48209 16.6982 3.73659 16.2064C3.99109 15.7146 4.10165 15.161 4.05554 14.6092C4.03237 14.3729 4.02195 14.1377 4.02195 13.9003C4.02195 13.6628 4.03237 13.4276 4.05091 13.196C4.09701 12.6442 3.98646 12.0905 3.73196 11.5988C3.47746 11.107 3.08934 10.697 2.61223 10.4159C2.54473 10.3769 2.48557 10.325 2.43815 10.2632C2.39072 10.2013 2.35596 10.1307 2.33584 10.0554C2.31572 9.9801 2.31065 9.90156 2.3209 9.82429C2.33116 9.74702 2.35655 9.67253 2.39562 9.60508L4.11809 6.61536C4.15757 6.54744 4.21013 6.48801 4.27272 6.44053C4.33532 6.39304 4.40671 6.35844 4.48276 6.33873C4.55881 6.31902 4.63802 6.31458 4.7158 6.32568C4.79358 6.33678 4.86839 6.36319 4.93589 6.40339C5.41098 6.67541 5.9531 6.80806 6.50012 6.78614C7.04713 6.76422 7.5769 6.58861 8.0287 6.27944C8.43793 5.99791 8.86906 5.74961 9.31795 5.53694C9.8133 5.29952 10.2314 4.9269 10.5241 4.46205C10.8168 3.99721 10.9721 3.4591 10.9721 2.90979C10.9721 2.75249 11.0346 2.60164 11.1458 2.49042C11.257 2.37919 11.4079 2.31671 11.5652 2.31671H15.0124C15.0911 2.31701 15.1689 2.3329 15.2414 2.36346C15.3139 2.39403 15.3797 2.43866 15.4348 2.49478C15.49 2.55089 15.5334 2.61739 15.5627 2.69041C15.592 2.76343 15.6066 2.84154 15.6055 2.92021C15.6069 3.46802 15.763 4.00429 16.0558 4.46725C16.3487 4.93021 16.7664 5.30101 17.2608 5.53694C17.7092 5.74988 18.1399 5.99816 18.5489 6.27944C19.0024 6.58836 19.5338 6.7631 20.0821 6.78359C20.6304 6.80408 21.1734 6.66949 21.6486 6.39528C21.7849 6.31668 21.9468 6.29535 22.0988 6.33596C22.2508 6.37657 22.3805 6.4758 22.4595 6.61189L24.1773 9.60044C24.2559 9.73674 24.2772 9.89864 24.2366 10.0506C24.196 10.2027 24.0968 10.3323 23.9607 10.4113C23.4836 10.6923 23.0955 11.1023 22.841 11.5941C22.5865 12.0859 22.4759 12.6395 22.522 13.1913C22.5452 13.4276 22.5556 13.6686 22.5556 13.9003Z" fill="#31322A"/>
<path d="M13.2891 8.10876C12.1436 8.10876 11.0238 8.44845 10.0714 9.08485C9.1189 9.72126 8.37656 10.6258 7.93819 11.6841C7.49982 12.7424 7.38513 13.907 7.6086 15.0305C7.83208 16.154 8.38369 17.1859 9.19369 17.9959C10.0037 18.8059 11.0357 19.3575 12.1592 19.581C13.2827 19.8045 14.4472 19.6898 15.5055 19.2514C16.5638 18.8131 17.4684 18.0707 18.1048 17.1183C18.7412 16.1658 19.0809 15.046 19.0809 13.9005C19.079 12.365 18.4682 10.8929 17.3825 9.80717C16.2967 8.7214 14.8246 8.1106 13.2891 8.10876ZM13.2891 17.3756C12.6018 17.3756 11.9299 17.1718 11.3584 16.7899C10.787 16.4081 10.3416 15.8654 10.0785 15.2304C9.81553 14.5954 9.74671 13.8967 9.8808 13.2226C10.0149 12.5485 10.3459 11.9293 10.8318 11.4433C11.3178 10.9573 11.937 10.6263 12.6111 10.4922C13.2852 10.3582 13.984 10.427 14.6189 10.69C15.2539 10.953 15.7967 11.3984 16.1785 11.9699C16.5603 12.5414 16.7642 13.2132 16.7642 13.9005C16.7642 14.8222 16.398 15.7061 15.7463 16.3578C15.0946 17.0095 14.2107 17.3756 13.2891 17.3756Z" fill="#31322A"/>
</svg>
