<svg width="27" height="27" viewBox="0 0 27 27" fill="none" xmlns="http://www.w3.org/2000/svg">
<path d="M13.3063 7.44321e-05C13.0153 0.00325066 12.7334 0.101771 12.5039 0.280535L0.514179 9.58766C0.354254 9.71185 0.224801 9.87089 0.135692 10.0527C0.0465837 10.2345 0.000173067 10.4343 0 10.6368V22.2525C0 24.6336 1.95831 26.5919 4.33934 26.5919H22.2525C24.6335 26.5919 26.5918 24.6336 26.5918 22.2525V10.6368C26.5919 10.4345 26.5459 10.2349 26.4573 10.0531C26.3686 9.87127 26.2397 9.71211 26.0802 9.58766L14.1373 0.280535C13.9 0.0957586 13.607 -0.00310661 13.3063 7.44321e-05ZM13.3169 3.01502L23.9329 11.286V22.2525C23.9329 23.2077 23.2079 23.9327 22.2527 23.9327H18.6143V17.2847C18.6143 14.3614 16.2193 11.9664 13.2959 11.9664C10.3725 11.9664 7.97754 14.3614 7.97754 17.2847V23.9327H4.33934C3.3842 23.9327 2.65918 23.2077 2.65918 22.2525V11.286L13.3169 3.01502ZM13.2959 14.6256C14.7921 14.6256 15.9551 15.7886 15.9551 17.2847V23.9327H10.6367V17.2847C10.6367 15.7886 11.7997 14.6256 13.2959 14.6256Z" fill="#31322A"/>
</svg>
