<svg width="27" height="21" viewBox="0 0 27 21" fill="none" xmlns="http://www.w3.org/2000/svg">
<path d="M23.9891 0H3.12335C1.68883 0 0.515137 0.908668 0.515137 2.01926V6.05779C0.515137 7.16838 1.68883 8.07705 3.12335 8.07705H23.9891C25.4236 8.07705 26.5973 7.16838 26.5973 6.05779V2.01926C26.5973 0.908668 25.4236 0 23.9891 0Z" fill="#31322A"/>
<path d="M23.9891 12.1155H3.12335C1.68883 12.1155 0.515137 13.0241 0.515137 14.1347V18.1733C0.515137 19.2839 1.68883 20.1925 3.12335 20.1925H23.9891C25.4236 20.1925 26.5973 19.2839 26.5973 18.1733V14.1347C26.5973 13.0241 25.4236 12.1155 23.9891 12.1155Z" fill="#31322A"/>
</svg>
